<svg xmlns="http://www.w3.org/2000/svg" xml:space="preserve" viewBox="0 0 100 100"><style>.wdt-rotate-icon{fill:currentColor}</style><path d="m65.7 34.4-.1-6.2-5.9 1.9S44.3 35 41.6 43.9c-1.8 6.1-.9 10.5-.6 14.2l.1-.1c2.4-4.2 5.7-7.7 9.7-10.3l2-1.3-.9 1.1c-3.3 3.9-5.6 8.6-6.6 13.6 3.6-.9 8.1-1.5 13.2-5.2 7.5-5.4 7.2-21.5 7.2-21.5" class="wdt-rotate-icon"/><path d="M39.6 56.4c-.3-2.7-.6-5.8.1-9.6 0-.2-1.2-6.5-2.5-10 2 3 3.2 6.9 3.2 6.7 0-.1.1-.3.1-.4.8-2.4 2.5-4.6 4.5-6.4-.6-1.4-1.4-2.6-2.2-3.7-2.7-3.6-6.5-6.1-10.8-7.4-.2-.1-.4-.1-.5-.2 0 1.2.9 4.8.3 9.2-.3 2.2-.5 4.5-.6 6.7-.1 2.6-.3 7.4 8.4 15.4zM47.2 62c2.6-.6 5.7-1.3 9.1-3.2.1-.1 6.6-1 10.2-.9-3.4-.9-7.5-.8-7.3-.9.1-.1.2-.2.3-.2 2-1.6 3.5-3.8 4.6-6.3 1.5.1 2.9.5 4.2.9 4.3 1.4 7.9 4.2 10.5 7.8.1.2.2.3.3.5-1.2.4-4.8.7-8.8 2.6-2 1-4.1 1.9-6.2 2.7-2.4.9-7 2.6-17.3-2.9.1-.1.3-.1.4-.1" class="wdt-rotate-icon"/><path d="M22.2 88.8C11.8 81.4 5 70.3 2.9 57.8c-2.1-12.6.9-25.2 8.3-35.6S29.7 5 42.2 2.9c12.6-2.1 25.2.9 35.6 8.3s17.2 18.5 19.3 31c2.1 12.6-.9 25.2-8.3 35.6S70.3 95 57.8 97.1c-12.6 2.1-25.3-.9-35.6-8.3m55-76.7C56.3-2.8 27.1 2 12.1 22.8c-15 20.9-10.2 50.1 10.7 65 20.9 15 50.1 10.2 65-10.7 15-20.8 10.2-50-10.6-65" class="wdt-rotate-icon"/><path d="M30.4 77.3c-7.3-5.2-12.1-13-13.6-21.9s.6-17.8 5.9-25.1 13-12.1 21.9-13.6 17.8.6 25.1 5.9 12.1 13 13.6 21.9-.6 17.8-5.9 25.1c-5.2 7.3-13 12.1-21.9 13.6-8.9 1.4-17.8-.6-25.1-5.9m38.7-53.9c-14.7-10.5-35.2-7.2-45.7 7.5s-7.2 35.2 7.5 45.7 35.2 7.2 45.7-7.5c10.6-14.7 7.2-35.2-7.5-45.7" class="wdt-rotate-icon"/><path d="m25.7 62.6 4.6-6.4-1.4-.6.8-1.1 2.7 1.4-5.5 7.6zM31.3 66.9c-.8-.6-1.3-1.2-1.6-1.8-.3-.7-.3-1.3-.1-2.1.2-.7.6-1.5 1.2-2.3s1.2-1.5 1.9-1.9c.6-.4 1.3-.6 2-.6s1.5.3 2.3.9 1.3 1.2 1.6 1.8c.3.7.3 1.4.1 2.1q-.3 1.05-1.2 2.4c-.6.8-1.2 1.4-1.8 1.9-.6.4-1.3.6-2 .6-.8-.1-1.6-.4-2.4-1m.8-1c.7.5 1.4.7 2.1.4s1.3-.9 1.9-1.7c.7-.9 1-1.7 1.1-2.5.1-.7-.3-1.3-1-1.9-.8-.5-1.5-.7-2.1-.4s-1.3.9-2 1.8c-.6.9-1 1.7-1 2.4-.1.7.3 1.3 1 1.9M38.9 72.4c-.8-.6-1.3-1.2-1.6-1.8-.3-.7-.3-1.3-.1-2.1.2-.7.6-1.5 1.2-2.3s1.2-1.5 1.9-1.9c.6-.4 1.3-.6 2-.6s1.5.3 2.3.9 1.3 1.2 1.6 1.8c.3.7.3 1.4.1 2.1-.3.7-.7 1.5-1.3 2.3s-1.2 1.4-1.8 1.9c-.6.4-1.3.6-2 .6-.7-.1-1.5-.3-2.3-.9m.8-1.1c.7.5 1.4.7 2.1.4s1.3-.9 1.9-1.7c.7-.9 1-1.7 1.1-2.5.1-.7-.3-1.3-1-1.9-.8-.5-1.5-.7-2.1-.4s-1.3.9-2 1.8c-.6.9-1 1.7-1 2.4-.1.7.3 1.4 1 1.9M48.1 72.2c-.5-.4-.9-.8-.9-1.3-.1-.5.1-1 .4-1.5.4-.6.9-.9 1.4-1s1 0 1.6.4c.5.4.8.8.9 1.4 0 .5-.1 1.1-.5 1.6-.3.5-.8.8-1.3.9-.6.1-1.1-.1-1.6-.5m.5-.7c.3.2.6.3.8.2s.5-.2.7-.5.4-.6.3-.9c0-.3-.2-.5-.5-.7s-.6-.3-.8-.2c-.3.1-.5.3-.7.6s-.3.5-.3.8c.1.2.2.4.5.7m-4.1 4.6 9.4-4.7 1.2.8-9.4 4.7zm4.6 3.4c-.5-.4-.9-.8-.9-1.3-.1-.5.1-1 .4-1.5.4-.6.9-.9 1.4-1s1 0 1.6.4.8.8.9 1.4c0 .5-.1 1.1-.5 1.6-.3.5-.8.8-1.3.9s-1-.1-1.6-.5m.6-.7c.3.2.6.3.8.2s.5-.2.7-.5.4-.6.3-.9c0-.3-.2-.5-.5-.7s-.6-.3-.8-.2-.5.3-.7.6-.3.5-.3.8c0 .2.2.5.5.7" class="wdt-rotate-icon"/><g class="wdt-rotate-icon-style"><path d="M8.9 47.2c-.2 0-.4-.2-.4-.5.6-7.5 3.3-14.7 7.7-20.9 6-8.3 14.7-14.2 24.6-16.5.2-.1.5.1.5.3s-.1.5-.3.5c-9.7 2.3-18.3 8-24.1 16.1-4.3 6.1-7 13.1-7.6 20.5.1.3-.1.5-.4.5M65.8 88c-.1-.2 0-.5.2-.6 6.8-3 12.7-7.7 17-13.8 5.9-8.2 8.5-18.1 7.5-28 0-.2.1-.4.4-.5.2 0 .4.1.5.4 1 10.1-1.7 20.2-7.7 28.6-4.4 6.2-10.4 11-17.4 14.1-.2.1-.4 0-.5-.2M50.6 12.5l.6-6.6 1 .1 3 5.1.4-4.8 1.1.1-.6 6.6-1-.1-3-5.1-.4 4.8zM57.8 13.2l4.3-5.6 1.2.4.5 7-1.1-.3-.1-1.8-2.6-.8-1.1 1.4zm2.6-1.9 2.2.6-.2-3.2zM66.9 16.5l2.7-5.1-1.9-1 .4-.8 4.7 2.4-.4.8-1.8-1-2.7 5.2zM73.2 20.7q-1.05-.9-1.2-1.8c-.1-.7.1-1.3.6-2l2.6-3.3.9.7-2.5 3.2c-.3.4-.5.9-.4 1.3s.3.8.8 1.1c.4.3.9.5 1.3.5s.8-.3 1.1-.7l2.5-3.2.9.7-2.8 3.2c-.5.7-1.1 1-1.8 1-.6.1-1.3-.2-2-.7M76.8 23.7l5-4.3 2 2.3c.5.6.7 1.1.6 1.6s-.3 1-.8 1.4c-.4.3-.7.5-1.1.5q-.6 0-1.2-.3v.4c0 .1-.1.3-.2.4l-.9 1.9-.7-.9.9-1.8c.1-.2.1-.3.1-.5 0-.1-.1-.3-.3-.5l-.9-.9-1.8 1.5zm3.2-1.3 1 1.2c.3.3.5.5.8.5s.6-.1.9-.4c.6-.5.7-1.1.2-1.7l-1.1-1.3zM81.1 28.8l7-1.1.6 1.1-4.5 5.5-.6-1 1.2-1.4-1.3-2.3-1.8.3zm3.2.4 1.1 2 2.1-2.5zM84.9 35.9l6.2-2.2.4 1-5.5 1.9 1.1 3.2-.8.3zM6.4 52.6l6.5-.5.1 1.1-6.5.5zM6.7 56.8l6.3-1.4.2.9-4 4.4 4.7-1.1.2 1.1-6.3 1.4-.2-.9 3.9-4.4-4.5 1zM10.1 68.2c-.4-1-.5-1.8-.2-2.6.3-.7.9-1.3 1.8-1.7.7-.3 1.3-.4 1.8-.4.6 0 1.1.2 1.5.5s.8.8 1.1 1.5c.2.4.3.7.3 1 .1.3.1.6.2.9l-.9.4c0-.6-.2-1.2-.5-1.8-.3-.8-.8-1.2-1.3-1.3s-1.2 0-1.9.3-1.1.7-1.4 1.2c-.2.5-.2 1.1.1 1.7.2.5.5.9.7 1.2l1.7-.7-.6-1.5.7-.3 1 2.3-2.9 1.3c-.2-.1-.4-.4-.7-.7 0-.4-.3-.8-.5-1.3M12.8 73.1l5.3-3.8 1.7 2.4c.4.6.6 1.1.4 1.6-.1.5-.4.9-1 1.3-.4.3-.8.4-1.2.4s-.8-.1-1.1-.4c0 .1 0 .3-.1.4 0 .1-.1.2-.2.4l-1.1 1.8-.5-1 1-1.7c.1-.2.2-.3.2-.4s-.1-.3-.2-.5l-.7-1-1.9 1.3zm3.2-1 .9 1.3c.2.3.5.5.8.6s.6 0 1-.3c.7-.5.8-1 .3-1.7l-1-1.4zM17.7 79.6l4.6-4.7 3.2 3.2-.6.6-2.4-2.4-1.4 1.4 2.2 2.1-.6.6-2.2-2.1-1.4 1.4 2.4 2.4-.6.6zM23.3 84.7l3.7-5.4 2.2 1.5c.8.5 1.2 1.1 1.3 1.8s-.2 1.5-.9 2.5c-.6.9-1.3 1.5-1.9 1.6-.7.2-1.4 0-2.2-.5zm1.4-.1 1.1.8c.3.2.7.4 1 .4.3.1.6 0 .9-.2s.6-.6 1-1.1.6-1 .7-1.3c.1-.4.1-.7-.1-1-.1-.3-.4-.5-.8-.8l-1.1-.8zM30.4 89.1l2.9-5.8 1 .5-2.9 5.8zM34.1 90.8l2.1-6.2 4.3 1.4-.3.8-3.2-1-.6 1.9 2.9.9-.3.8-2.9-.9-.6 1.9 3.2 1.1-.3.8zM41.5 93l.9-6.4 1 .1 2.7 5.2.7-4.7 1.1.1-.9 6.4-1-.1-2.7-5.2-.7 4.7zM51.9 93.7l-.3-5.7-2.1.1v-.9l5.2-.3v.9l-2 .2.3 5.6zM59.9 92.7c-.8.2-1.5.3-2 .2l-.2-.9h1c.3 0 .7-.1 1-.1.5-.1.9-.3 1.1-.5s.3-.4.2-.8c0-.2-.1-.4-.3-.5-.1-.1-.3-.2-.6-.2s-.6-.1-1.1-.1c-.7 0-1.3-.1-1.6-.3s-.6-.5-.7-1c-.1-.6 0-1 .3-1.5.3-.4.9-.7 1.7-.9.4-.1.7-.1 1.1-.2h.8l.2.9c-.5-.1-1.1 0-1.7.1-.5.1-.8.3-1.1.5-.2.2-.3.4-.2.8 0 .2.1.3.2.4s.3.2.5.2.6 0 1 .1c.5 0 1 .1 1.3.2s.6.3.7.5c.2.2.3.5.4.8.1.6 0 1-.3 1.5-.3.3-.9.6-1.7.8" class="wdt-rotate-icon"/></g></svg>