<svg xmlns="http://www.w3.org/2000/svg" height="calc(100vh - 175px)" fill="none" viewBox="0 0 405 809"><path fill="#fd9401" d="m-358.39 358.707 64.476-64.477.068-.067h121.301l-48.265 48.265-12.462 12.461-49.425 49.425 6.122 6.139L.317 687.328 283.33 404.314l-49.442-49.425-3.481-3.498-57.229-57.228H294.48l.067.067 50.535 50.535 59.549 59.549L.317 808.629l-404.315-404.315zM.317 0l233.621 233.622H112.637L.317 121.301l-112.321 112.321h-121.301z"/><path fill="#0E4C45" d="m-516.39 358.707 64.476-64.477.068-.067h121.301l-48.265 48.265-12.462 12.461-49.425 49.425 6.122 6.139 276.892 276.875L125.33 404.314l-49.442-49.425-3.481-3.498-57.228-57.228H136.48l.067.067 50.535 50.535 59.549 59.549-404.314 404.315-404.315-404.315zM-157.683 0 75.938 233.622h-121.3l-112.321-112.321-112.321 112.321h-121.301z"/><path fill="#fd9401" d="m-647.386 358.707 64.476-64.477.068-.067h121.301l-48.265 48.265-12.462 12.461-49.425 49.425 6.122 6.139 276.891 276.875L-5.666 404.314l-49.442-49.425-3.481-3.498-57.229-57.228H5.483l.068.067 50.535 50.535 59.549 59.549-404.315 404.315-404.314-404.315zM-288.68 0l233.622 233.622h-121.301L-288.68 121.301-401 233.622h-121.301z" opacity=".7"/></svg>